<svg width="183" height="32" viewBox="0 0 183 32" fill="none" xmlns="http://www.w3.org/2000/svg">
<path d="M52.6919 27.096V26.296L52.9799 26.264C53.7265 26.1573 54.3345 26.008 54.8039 25.816C55.2945 25.624 55.7105 25.3147 56.0519 24.888C56.4145 24.44 56.7559 23.832 57.0759 23.064L64.8199 4.28H65.9079L73.4599 23.064C73.8865 24.1093 74.3452 24.8773 74.8359 25.368C75.3265 25.8587 75.9985 26.1467 76.8519 26.232L77.4919 26.296V27.096L73.5239 27L68.4039 27.096V26.296L69.0439 26.232C69.7905 26.1467 70.3239 25.9867 70.6439 25.752C70.9639 25.5173 71.1239 25.1867 71.1239 24.76C71.1239 24.3333 70.9745 23.7573 70.6759 23.032L69.0119 18.872H59.9879L58.2599 23.032C58.1105 23.416 57.9825 23.768 57.8759 24.088C57.7692 24.3867 57.7159 24.6533 57.7159 24.888C57.7159 25.2933 57.8865 25.6027 58.2279 25.816C58.5905 26.0293 59.1772 26.168 59.9879 26.232L60.6279 26.296V27.096L56.5639 27L52.6919 27.096ZM60.4039 17.848H68.6279L64.5959 7.704L60.4039 17.848ZM85.5264 27.32C84.353 27.32 83.2864 27.1387 82.3264 26.776C81.3877 26.392 80.641 25.784 80.0864 24.952C79.5317 24.12 79.2544 23.0427 79.2544 21.72V16.312C79.2544 15.352 79.1904 14.6693 79.0624 14.264C78.9344 13.8373 78.6997 13.56 78.3584 13.432C78.0384 13.304 77.569 13.208 76.9504 13.144L76.4384 13.08V12.344L80.3744 12.44L84.3104 12.344V13.08L83.7984 13.144C83.1797 13.208 82.6997 13.304 82.3584 13.432C82.0384 13.56 81.8144 13.8373 81.6864 14.264C81.5584 14.6693 81.4944 15.352 81.4944 16.312V21.72C81.4944 23.192 81.8784 24.3333 82.6464 25.144C83.4357 25.9547 84.513 26.36 85.8784 26.36C87.1157 26.36 88.1184 25.9867 88.8864 25.24C89.6544 24.4933 90.0384 23.288 90.0384 21.624V16.344C90.0384 15.384 89.9744 14.7013 89.8464 14.296C89.7184 13.8693 89.4837 13.592 89.1424 13.464C88.8224 13.336 88.353 13.24 87.7344 13.176L87.2224 13.112V12.376L90.4544 12.44L93.6864 12.376V13.112L93.1744 13.176C92.5557 13.24 92.0757 13.336 91.7344 13.464C91.4144 13.592 91.1904 13.8693 91.0624 14.296C90.9344 14.7013 90.8704 15.384 90.8704 16.344V21.624C90.8704 23.5227 90.3797 24.952 89.3984 25.912C88.4384 26.8507 87.1477 27.32 85.5264 27.32ZM108.394 27.352C107.647 27.352 107.029 27.1387 106.538 26.712C106.047 26.264 105.663 25.3573 105.386 23.992C105.279 23.3947 105.109 22.7973 104.874 22.2C104.639 21.6027 104.255 21.112 103.722 20.728C103.189 20.3227 102.399 20.12 101.354 20.12H99.4981V23.16C99.4981 24.0987 99.5621 24.7813 99.6901 25.208C99.8181 25.6133 100.042 25.88 100.362 26.008C100.703 26.1147 101.183 26.2107 101.802 26.296L102.314 26.36V27.096L98.4101 27L94.5061 27.096V26.36L95.0181 26.296C95.6368 26.2107 96.1061 26.1147 96.4261 26.008C96.7675 25.88 97.0021 25.6133 97.1301 25.208C97.2581 24.7813 97.3221 24.0987 97.3221 23.16V16.312C97.3221 15.4587 97.2581 14.8187 97.1301 14.392C97.0235 13.9653 96.8101 13.6667 96.4901 13.496C96.1915 13.3253 95.7648 13.2187 95.2101 13.176L94.5061 13.112V12.376L98.4421 12.44H102.858C103.818 12.44 104.703 12.5573 105.514 12.792C106.325 13.0053 106.975 13.3893 107.466 13.944C107.957 14.4773 108.202 15.2347 108.202 16.216C108.202 17.112 107.957 17.8267 107.466 18.36C106.997 18.872 106.41 19.256 105.706 19.512C105.002 19.768 104.309 19.9387 103.626 20.024C104.757 20.1307 105.674 20.472 106.378 21.048C107.103 21.624 107.583 22.6373 107.818 24.088C107.989 25.0907 108.234 25.7093 108.554 25.944C108.895 26.1573 109.311 26.264 109.802 26.264C109.951 26.264 110.101 26.2427 110.25 26.2C110.399 26.1573 110.527 26.1147 110.634 26.072L110.794 26.808C110.517 26.9147 110.175 27.032 109.77 27.16C109.365 27.288 108.906 27.352 108.394 27.352ZM102.538 13.208H99.4981V19.352H102.058C103.359 19.352 104.287 19.1067 104.842 18.616C105.397 18.104 105.674 17.304 105.674 16.216C105.674 15.3413 105.461 14.6267 105.034 14.072C104.629 13.496 103.797 13.208 102.538 13.208ZM110.391 27.096V26.424L110.839 26.328C111.223 26.2427 111.532 26.136 111.767 26.008C112.023 25.88 112.257 25.6667 112.471 25.368C112.684 25.0693 112.908 24.632 113.143 24.056L117.975 12.44H119.191L123.671 23.224C124.055 24.1413 124.385 24.8347 124.663 25.304C124.94 25.7733 125.345 26.072 125.879 26.2L126.839 26.424V27.096L123.511 27L119.767 27.096V26.424L120.983 26.2C121.175 26.1573 121.345 26.0827 121.495 25.976C121.644 25.848 121.719 25.6453 121.719 25.368C121.719 25.1333 121.655 24.8453 121.527 24.504L120.567 22.072H114.871L114.103 23.992C113.953 24.3973 113.825 24.7387 113.719 25.016C113.633 25.2933 113.591 25.5173 113.591 25.688C113.591 25.9013 113.655 26.0507 113.783 26.136C113.911 26.2213 114.081 26.2853 114.295 26.328L115.127 26.424V27.096L112.727 27L110.391 27.096ZM117.783 14.872L115.191 21.272H120.279L117.783 14.872Z" fill="white"/>
<path d="M74.02 10V4.6C74.02 4.3 73.9766 4.06 73.89 3.88C73.81 3.69333 73.62 3.6 73.32 3.6H73.12V3.4H74.02C74.2533 3.4 74.4333 3.43 74.56 3.49C74.6933 3.55 74.7866 3.66667 74.84 3.84C74.8933 4.01333 74.92 4.26667 74.92 4.6V6.4H77.92V3.4H78.82V8.8C78.82 9.1 78.86 9.34333 78.94 9.53C79.0266 9.71 79.22 9.8 79.52 9.8H79.72V10H78.82C78.5866 10 78.4033 9.97 78.27 9.91C78.1433 9.85 78.0533 9.73333 78 9.56C77.9466 9.38667 77.92 9.13333 77.92 8.8V6.8H74.92V10H74.02ZM85.3852 10.2C84.7519 10.2 84.2019 10.0467 83.7352 9.74C83.2752 9.42667 82.9185 9.00667 82.6652 8.48C82.4119 7.94667 82.2852 7.35333 82.2852 6.7C82.2852 6.04667 82.4119 5.45667 82.6652 4.93C82.9185 4.39667 83.2752 3.97667 83.7352 3.67C84.2019 3.35667 84.7519 3.2 85.3852 3.2C86.0185 3.2 86.5652 3.35667 87.0252 3.67C87.4919 3.97667 87.8519 4.39667 88.1052 4.93C88.3585 5.45667 88.4852 6.04667 88.4852 6.7C88.4852 7.35333 88.3585 7.94667 88.1052 8.48C87.8519 9.00667 87.4919 9.42667 87.0252 9.74C86.5652 10.0467 86.0185 10.2 85.3852 10.2ZM85.3852 9.8C85.8252 9.8 86.2019 9.67333 86.5152 9.42C86.8285 9.16667 87.0685 8.81 87.2352 8.35C87.4019 7.88333 87.4852 7.33333 87.4852 6.7C87.4852 6.06667 87.4019 5.52 87.2352 5.06C87.0685 4.59333 86.8285 4.23333 86.5152 3.98C86.2019 3.72667 85.8252 3.6 85.3852 3.6C84.9519 3.6 84.5752 3.72667 84.2552 3.98C83.9419 4.23333 83.7019 4.59333 83.5352 5.06C83.3685 5.52 83.2852 6.06667 83.2852 6.7C83.2852 7.33333 83.3685 7.88333 83.5352 8.35C83.7019 8.81 83.9419 9.16667 84.2552 9.42C84.5752 9.67333 84.9519 9.8 85.3852 9.8ZM94.4843 10.1C93.8377 10.1 93.3277 9.99 92.9543 9.77C92.581 9.55 92.3177 9.22333 92.1643 8.79C92.011 8.35 91.9343 7.80333 91.9343 7.15V4.6C91.9343 4.3 91.891 4.06 91.8043 3.88C91.7243 3.69333 91.5343 3.6 91.2343 3.6H91.0343V3.4H91.9343C92.1677 3.4 92.3477 3.43 92.4743 3.49C92.6077 3.55 92.701 3.66667 92.7543 3.84C92.8077 4.01333 92.8343 4.26667 92.8343 4.6V7.45C92.8343 8.15 92.9643 8.7 93.2243 9.1C93.4843 9.5 93.9443 9.7 94.6043 9.7C95.1177 9.7 95.521 9.61 95.8143 9.43C96.1077 9.25 96.3177 8.97333 96.4443 8.6C96.571 8.22 96.6343 7.73667 96.6343 7.15V3.4H97.0343V7.15C97.0343 7.80333 96.9643 8.35 96.8243 8.79C96.6843 9.22333 96.431 9.55 96.0643 9.77C95.6977 9.99 95.171 10.1 94.4843 10.1ZM102.63 10.17C102.363 10.17 102.093 10.14 101.82 10.08C101.553 10.0267 101.306 9.94667 101.08 9.84C100.86 9.73333 100.683 9.60667 100.55 9.46C100.416 9.30667 100.35 9.13667 100.35 8.95V7.88H100.53C100.643 8.55333 100.863 9.03667 101.19 9.33C101.523 9.62333 101.973 9.77 102.54 9.77C102.766 9.77 102.98 9.73333 103.18 9.66C103.38 9.58 103.54 9.46333 103.66 9.31C103.786 9.15667 103.85 8.97 103.85 8.75C103.85 8.45667 103.756 8.20667 103.57 8C103.39 7.79333 103.116 7.58333 102.75 7.37L101.52 6.64C101.093 6.38667 100.79 6.13 100.61 5.87C100.436 5.61 100.35 5.29333 100.35 4.92C100.35 4.40667 100.526 3.99667 100.88 3.69C101.24 3.37667 101.71 3.22 102.29 3.22C102.536 3.22 102.786 3.24667 103.04 3.3C103.293 3.35333 103.526 3.43333 103.74 3.54C103.953 3.64 104.123 3.76333 104.25 3.91C104.383 4.05667 104.45 4.22667 104.45 4.42V5.49H104.27C104.156 4.81667 103.94 4.33667 103.62 4.05C103.3 3.76333 102.856 3.62 102.29 3.62C102.096 3.62 101.91 3.66333 101.73 3.75C101.55 3.83 101.403 3.94667 101.29 4.1C101.183 4.24667 101.13 4.42333 101.13 4.63C101.13 4.91667 101.223 5.15333 101.41 5.34C101.596 5.52667 101.873 5.72667 102.24 5.94L103.47 6.67C103.896 6.92333 104.21 7.17 104.41 7.41C104.61 7.64333 104.71 7.94667 104.71 8.32C104.71 8.88 104.523 9.33 104.15 9.67C103.776 10.0033 103.27 10.17 102.63 10.17ZM108.202 10V4.6C108.202 4.3 108.158 4.06 108.072 3.88C107.992 3.69333 107.802 3.6 107.502 3.6H107.302V3.4H111.562C111.795 3.4 111.972 3.44 112.092 3.52C112.212 3.59333 112.295 3.69333 112.342 3.82C112.388 3.94 112.412 4.06667 112.412 4.2V4.95H112.212C112.212 4.55 112.102 4.26 111.882 4.08C111.668 3.89333 111.362 3.8 110.962 3.8H109.102V6.4H111.802V6.8H109.102V9.6H110.852C111.305 9.6 111.662 9.51667 111.922 9.35C112.188 9.18333 112.398 8.9 112.552 8.5L112.752 8.55L112.402 9.5C112.348 9.65333 112.258 9.77667 112.132 9.87C112.012 9.95667 111.852 10 111.652 10H108.202Z" fill="white"/>
</svg>
